<?xml version="1.0" encoding="UTF-8" standalone="no"?>
<svg xmlns:dc="http://purl.org/dc/elements/1.1/"
   xmlns:cc="http://creativecommons.org/ns#"
   xmlns:rdf="http://www.w3.org/1999/02/22-rdf-syntax-ns#"
   xmlns:svg="http://www.w3.org/2000/svg"
   xmlns="http://www.w3.org/2000/svg"
   xmlns:sodipodi="http://sodipodi.sourceforge.net/DTD/sodipodi-0.dtd"
   xmlns:inkscape="http://www.inkscape.org/namespaces/inkscape" width="210mm" height="297mm" viewBox="0 0 210 297" version="1.1" id="satellite-svg" Created="Frank-Pound" Company="AstroSec">


   <defs id="defs20906" />
   <g id="layer1" transform="matrix(-1.9291135,0,0,-1.5330903,241.80251,231.55054)">
      <polygon class="cls-18" points="184.03,99.6 184.03,115.54 152.74,85.45 152.74,67.98 " id="polygon17204" transform="matrix(1.0602343,0,0,1.0602343,-92.065165,21.35177)" style="opacity:0.653;mix-blend-mode:normal;fill:none;fill-opacity:1;stroke:#000000;stroke-width:0.943188;stroke-linecap:square;stroke-linejoin:miter;stroke-miterlimit:4;stroke-dasharray:none;stroke-opacity:1;paint-order:fill markers stroke" />
      <path class="cls-20" d="m 103.01792,143.97849 a 0.16963748,0.16963748 0 0 1 -0.0954,0 L 69.779611,112.04427 a 0.13783045,0.13783045 0 0 1 0,-0.0954 V 93.447709 a 0.13783045,0.13783045 0 0 1 0.233259,-0.09541 l 33.17476,33.524651 a 0.16963748,0.16963748 0 0 1 0,0.0954 v 16.90014 a 0.11662579,0.11662579 0 0 1 -0.0741,0.11661 z M 70.002218,111.89581 102.86949,143.54384 V 127.00417 L 70.002218,93.74457 Z" id="path17206" style="opacity:0.653;mix-blend-mode:normal;fill:none;fill-opacity:1;stroke:#000000;stroke-width:1;stroke-linecap:square;stroke-linejoin:miter;stroke-miterlimit:4;stroke-dasharray:none;stroke-opacity:1;paint-order:fill markers stroke" />
      <polygon class="cls-18" points="172.3,54.58 181.43,63.79 184.91,67.33 186.77,69.18 189.29,71.75 197.81,80.34 200.44,83 184.03,99.6 152.74,67.98 169.15,51.4 " id="satellite-top-bus" transform="matrix(1.0602343,0,0,1.0602343,-92.065165,21.35177)" style="opacity:0.653;mix-blend-mode:normal;fill:none;fill-opacity:1;stroke:#000000;stroke-width:0.943188;stroke-linecap:square;stroke-linejoin:miter;stroke-miterlimit:4;stroke-dasharray:none;stroke-opacity:1;paint-order:fill markers stroke" />
      <path class="cls-20" d="m 103.01792,127.0784 a 0.16963748,0.16963748 0 0 1 -0.0954,0 L 69.779611,93.521884 a 0.15903514,0.15903514 0 0 1 0,-0.190738 L 87.178055,75.752508 a 0.13783045,0.13783045 0 0 1 0.190861,0 l 33.174814,33.503442 a 0.13783045,0.13783045 0 0 1 0,0.19074 l -17.3985,17.59989 a 0.14843281,0.14843281 0 0 1 -0.12744,0.0321 z M 70.065832,93.447677 103.01792,126.7603 120.25742,109.35123 87.273438,76.028043 Z" id="satellite-bus-line" style="opacity:0.653;mix-blend-mode:normal;fill:none;fill-opacity:1;stroke:#000000;stroke-width:1;stroke-linecap:square;stroke-linejoin:miter;stroke-miterlimit:4;stroke-dasharray:none;stroke-opacity:1;paint-order:fill markers stroke" />
      <path class="cls-20" d="m 103.01792,143.97849 v 0 a 0.12722811,0.12722811 0 0 1 -0.0849,-0.11661 v -16.91071 a 0.19084217,0.19084217 0 0 1 0,-0.0954 l 17.40912,-17.5999 a 0.11662579,0.11662579 0 0 1 0.13785,0 0.13783045,0.13783045 0 0 1 0.0849,0.12738 v 18.42687 a 0.10602342,0.10602342 0 0 1 0,0.0954 l -17.40913,16.07314 a 0.11662579,0.11662579 0 0 1 -0.13784,0 z m 0.12743,-16.96373 v 16.53965 l 17.14409,-15.81869 v -18.02398 z" id="path17214" style="opacity:0.653;mix-blend-mode:normal;fill:none;fill-opacity:1;stroke:#000000;stroke-width:1;stroke-linecap:square;stroke-linejoin:miter;stroke-miterlimit:4;stroke-dasharray:none;stroke-opacity:1;paint-order:fill markers stroke" />
      <polygon points="198.95,87.06 198.91,95.67 190.83,103.16 190.83,95.27 " id="satellite-radio" transform="matrix(1.0602343,0,0,1.0602343,-92.065165,21.35177)" class="cls-18" style="opacity:0.504373;mix-blend-mode:normal;fill:none;fill-opacity:1;stroke:#000000;stroke-width:0.943188;stroke-linecap:square;stroke-linejoin:miter;stroke-miterlimit:4;stroke-dasharray:none;stroke-opacity:1;paint-order:fill markers stroke" />
      <polygon class="cls-18" points="200.45,83 200.45,100.38 184.03,115.54 184.03,99.6 " id="polygon17212" transform="matrix(1.0602343,0,0,1.0602343,-92.065165,21.35177)" style="opacity:0.653;mix-blend-mode:normal;fill:none;stroke:#000000;stroke-width:0.943188;stroke-linecap:square;stroke-linejoin:miter;stroke-miterlimit:4;stroke-dasharray:none;stroke-opacity:1;paint-order:fill markers stroke" />
      <path d="m 110.25938,130.85279 h -0.0529 a 0.12722811,0.12722811 0 0 1 -0.0849,-0.11661 v -8.37581 a 0.12722811,0.12722811 0 0 1 0,-0.085 l 8.65154,-8.68333 a 0.14843281,0.14843281 0 0 1 0.14827,0 0.11662579,0.11662579 0 0 1 0.0741,0.11661 v 9.12862 a 0.10602342,0.10602342 0 0 1 0,0.0954 l -8.56675,7.94116 a 0.11662579,0.11662579 0 0 1 -0.16951,-0.02 z m 0.12704,-8.48184 v 7.99419 l 8.30167,-7.68671 v -8.74697 z" id="satellite-radio-line" class="cls-20" style="opacity:0.653;mix-blend-mode:normal;fill:#8cbed1;fill-opacity:1;stroke:#000000;stroke-width:1;stroke-linecap:square;stroke-linejoin:miter;stroke-miterlimit:4;stroke-dasharray:none;stroke-opacity:1;paint-order:fill markers stroke" />
      <polygon class="cls-18" points="152.74,67.98 152.74,35.23 169.15,18.64 169.15,51.4 " id="solar-panel-top" transform="matrix(1.0602343,0,0,1.0602343,-92.065165,21.35177)" style="opacity:0.653;mix-blend-mode:normal;fill:none;stroke:#000000;stroke-width:0.943188;stroke-linecap:square;stroke-linejoin:miter;stroke-miterlimit:4;stroke-dasharray:none;stroke-opacity:1;paint-order:fill markers stroke" />
      <path class="cls-20" d="m 69.87499,93.553704 v 0 A 0.11662579,0.11662579 0 0 1 69.79016,93.437092 V 58.70382 a 0.16963748,0.16963748 0 0 1 0,-0.09538 L 87.188604,41.01915 a 0.12722811,0.12722811 0 0 1 0.148431,0 0.12722811,0.12722811 0 0 1 0.08483,0.116611 v 34.71208 a 0.19084217,0.19084217 0 0 1 0,0.09538 l -17.45146,17.578665 a 0.12722811,0.12722811 0 0 1 -0.09541,0.03213 z m 0.137846,-34.79687 V 93.108428 L 87.114417,75.794783 v -34.36217 z" id="solar-panel-top-line" style="opacity:0.653;mix-blend-mode:normal;fill:none;stroke:#000000;stroke-width:1;stroke-linecap:square;stroke-linejoin:miter;stroke-miterlimit:4;stroke-dasharray:none;stroke-opacity:1;paint-order:fill markers stroke" />
      <polygon class="cls-18" points="143.01,95.02 142.16,95.87 132.44,105.42 131.26,106.58 121.54,116.14 120.34,117.32 120.34,100.73 132.44,88.5 142.16,78.68 143.01,77.81 152.74,67.98 152.74,85.45 " id="solar-panel-left" transform="matrix(1.0602343,0,0,1.0602343,-92.065165,21.35177)" style="opacity:0.653;mix-blend-mode:normal;fill:none;stroke:#000000;stroke-width:0.943188;stroke-linecap:square;stroke-linejoin:miter;stroke-miterlimit:4;stroke-dasharray:none;stroke-opacity:1;paint-order:fill markers stroke" />
      <path class="cls-20" d="m 35.5234,145.87633 v 0 a 0.13783045,0.13783045 0 0 1 -0.08483,-0.12705 V 128.1494 a 0.13783045,0.13783045 0 0 1 0,-0.0954 L 69.790166,93.331243 a 0.14843281,0.14843281 0 0 1 0.14843,0 0.13783045,0.13783045 0 0 1 0.08483,0.127051 v 18.490536 a 0.13783045,0.13783045 0 0 1 0,0.0954 L 35.671825,145.8339 a 0.12722811,0.12722811 0 0 1 -0.148431,0.0426 z m 0.127228,-17.67408 v 17.19699 L 69.747762,111.89581 V 93.74457 Z" id="solar-panel-left-line" style="opacity:0.653;mix-blend-mode:normal;fill:none;stroke:#000000;stroke-width:1;stroke-linecap:square;stroke-linejoin:miter;stroke-miterlimit:4;stroke-dasharray:none;stroke-opacity:1;paint-order:fill markers stroke" />
      <polygon class="cls-18" points="200.44,36.38 193.59,43.3 181.4,55.62 177.37,59.69 170.68,52.94 169.15,51.4 170.68,49.85 192.19,28.11 193.59,26.7 200.44,19.78 201.57,18.64 201.57,35.23 " id="solar-panel-right" transform="matrix(1.0602343,0,0,1.0602343,-92.065165,21.35177)" style="opacity:0.653;mix-blend-mode:normal;fill:none;stroke:#000000;stroke-width:0.943188;stroke-linecap:square;stroke-linejoin:miter;stroke-miterlimit:4;stroke-dasharray:none;stroke-opacity:1;paint-order:fill markers stroke" />
      <path class="cls-20" d="m 95.988563,84.764386 h -0.09541 l -8.715135,-8.789358 a 0.13783045,0.13783045 0 0 1 0,-0.190743 L 121.5509,41.051009 a 0.12722811,0.12722811 0 0 1 0.14827,0 0.12722811,0.12722811 0 0 1 0.085,0.116611 v 17.599875 a 0.15903514,0.15903514 0 0 1 0,0.09538 L 96.126359,84.796163 a 0.14843281,0.14843281 0 0 1 -0.137813,-0.03206 z m -8.481876,-8.916587 8.481876,8.598496 25.530517,-25.79549 V 41.432613 Z" id="solar-panel-right-line" style="opacity:0.653;mix-blend-mode:normal;fill:none;stroke:#000000;stroke-width:1;stroke-linecap:square;stroke-linejoin:miter;stroke-miterlimit:4;stroke-dasharray:none;stroke-opacity:1;paint-order:fill markers stroke" />
      <polygon class="cls-18" points="168.91,101 152.74,85.45 152.74,117.32 " id="sensor-door" transform="matrix(1.0602343,0,0,1.0602343,-92.065165,21.35177)" style="opacity:0.653;mix-blend-mode:normal;fill:none;stroke:#000000;stroke-width:0.943188;stroke-linecap:square;stroke-linejoin:miter;stroke-miterlimit:4;stroke-dasharray:none;stroke-opacity:1;paint-order:fill markers stroke" />
      <path class="cls-20" d="m 69.87499,145.87633 h -0.05302 a 0.15903514,0.15903514 0 0 1 -0.08483,-0.12705 v -33.80026 a 0.12722811,0.12722811 0 0 1 0.08483,-0.11661 0.12722811,0.12722811 0 0 1 0.14843,0 l 17.143984,16.50788 a 0.09542109,0.09542109 0 0 1 0,0.085 0.10602342,0.10602342 0 0 1 0,0.0954 l -17.133381,17.31356 a 0.12722811,0.12722811 0 0 1 -0.106024,0.0425 z m 0.127228,-33.62004 v 33.14295 l 16.82592,-16.96377 z" id="sensor-door-line" style="opacity:0.653;mix-blend-mode:normal;fill:none;stroke:#000000;stroke-width:1;stroke-linecap:square;stroke-linejoin:miter;stroke-miterlimit:4;stroke-dasharray:none;stroke-opacity:1;paint-order:fill markers stroke" />
      <polygon class="cls-18" points="152.74,46.56 152.74,38.42 169.15,21.85 169.15,29.98 " id="polygon17236" transform="matrix(1.0602343,0,0,1.0602343,-92.065165,21.35177)" style="opacity:0.653;mix-blend-mode:normal;fill:none;stroke:#000000;stroke-width:0.943188;stroke-linecap:square;stroke-linejoin:miter;stroke-miterlimit:4;stroke-dasharray:none;stroke-opacity:1;paint-order:fill markers stroke" />
      <path class="cls-20" d="m 69.87499,70.854084 v 0 a 0.13783045,0.13783045 0 0 1 -0.08483,-0.12742 v -8.6409 a 0.16963748,0.16963748 0 0 1 0,-0.09538 l 17.398445,-17.56809 a 0.14843281,0.14843281 0 0 1 0.148431,0 0.12722811,0.12722811 0 0 1 0.08483,0.116611 v 8.619696 a 0.19084217,0.19084217 0 0 1 0,0.09538 L 69.970409,70.811449 a 0.13783045,0.13783045 0 0 1 -0.09541,0.04246 z m 0.137846,-8.715104 v 8.259208 L 87.114414,53.084585 v -8.23805 z" id="path17238" style="opacity:0.653;mix-blend-mode:normal;fill:none;stroke:#000000;stroke-width:1;stroke-linecap:square;stroke-linejoin:miter;stroke-miterlimit:4;stroke-dasharray:none;stroke-opacity:1;paint-order:fill markers stroke" />
      <polygon class="cls-18" points="152.74,64 152.74,55.86 169.15,39.29 169.15,47.42 " id="polygon17240" transform="matrix(1.0602343,0,0,1.0602343,-92.065165,21.35177)" style="opacity:0.653;mix-blend-mode:normal;fill:none;stroke:#000000;stroke-width:0.943188;stroke-linecap:square;stroke-linejoin:miter;stroke-miterlimit:4;stroke-dasharray:none;stroke-opacity:1;paint-order:fill markers stroke" />
      <path class="cls-20" d="m 69.87499,89.344597 v 0 a 0.13783045,0.13783045 0 0 1 -0.08483,-0.12742 v -8.640933 a 0.16963748,0.16963748 0 0 1 0,-0.09538 l 17.398445,-17.55748 a 0.12722811,0.12722811 0 0 1 0.148431,0 0.12722811,0.12722811 0 0 1 0.08484,0.116612 v 8.619734 a 0.15903514,0.15903514 0 0 1 0,0.09538 l -17.45148,17.546852 a 0.13783045,0.13783045 0 0 1 -0.09541,0.04249 z m 0.137846,-8.715144 v 8.259248 L 87.114417,71.575058 v -8.23801 z" id="path17242" style="opacity:0.653;mix-blend-mode:normal;fill:none;stroke:#000000;stroke-width:1;stroke-linecap:square;stroke-linejoin:miter;stroke-miterlimit:4;stroke-dasharray:none;stroke-opacity:1;paint-order:fill markers stroke" />
      <polygon class="cls-18" points="191.71,45.2 191.71,28.6 198.56,21.68 198.56,38.27 " id="polygon17244" transform="matrix(1.0602343,0,0,1.0602343,-92.065165,21.35177)" style="opacity:0.653;mix-blend-mode:normal;fill:none;stroke:#000000;stroke-width:0.943188;stroke-linecap:square;stroke-linejoin:miter;stroke-miterlimit:4;stroke-dasharray:none;stroke-opacity:1;paint-order:fill markers stroke" />
      <path class="cls-20" d="m 111.19238,69.401561 h -0.0529 a 0.11662579,0.11662579 0 0 1 -0.0849,-0.116611 V 51.674455 a 0.19084217,0.19084217 0 0 1 0,-0.09538 l 7.26261,-7.336835 a 0.12722811,0.12722811 0 0 1 0.14826,0 0.14843281,0.14843281 0 0 1 0.0741,0.127035 v 17.599916 a 0.11662579,0.11662579 0 0 1 0,0.08495 l -7.26261,7.347414 a 0.16963748,0.16963748 0 0 1 -0.085,0 z m 0.12744,-17.674089 v 17.22881 l 6.99756,-7.082378 V 44.67691 Z" id="path17246" style="opacity:0.653;mix-blend-mode:normal;fill:none;stroke:#000000;stroke-width:1;stroke-linecap:square;stroke-linejoin:miter;stroke-miterlimit:4;stroke-dasharray:none;stroke-opacity:1;paint-order:fill markers stroke" />
      <polygon class="cls-18" points="123.96,113.76 123.96,97.06 129.92,91.04 129.92,107.9 " id="polygon17248" transform="matrix(1.0602343,0,0,1.0602343,-92.065165,21.35177)" style="opacity:0.653;mix-blend-mode:normal;fill:none;stroke:#000000;stroke-width:0.943188;stroke-linecap:square;stroke-linejoin:miter;stroke-miterlimit:4;stroke-dasharray:none;stroke-opacity:1;paint-order:fill markers stroke" />
      <path class="cls-20" d="m 39.403857,142.10189 v 0 a 0.12722811,0.12722811 0 0 1 -0.08483,-0.12737 v -17.71649 a 0.11662579,0.11662579 0 0 1 0,-0.085 l 6.361406,-6.36141 a 0.12722811,0.12722811 0 0 1 0.14843,0 0.13783045,0.13783045 0 0 1 0.08483,0.11661 v 17.82251 a 0.15903514,0.15903514 0 0 1 0,0.0954 l -6.361407,6.21298 a 0.09542109,0.09542109 0 0 1 -0.148431,0.0424 z m 0.137845,-17.78012 v 17.33484 l 6.064541,-5.95852 V 118.2042 Z" id="path17250" style="opacity:0.653;mix-blend-mode:normal;fill:none;stroke:#000000;stroke-width:1;stroke-linecap:square;stroke-linejoin:miter;stroke-miterlimit:4;stroke-dasharray:none;stroke-opacity:1;paint-order:fill markers stroke" />
      <polygon class="cls-18" points="139.45,98.53 139.45,81.47 146.3,74.5 146.3,91.79 " id="polygon17252" transform="matrix(1.0602343,0,0,1.0602343,-92.065165,21.35177)" style="opacity:0.653;mix-blend-mode:normal;fill:none;stroke:#000000;stroke-width:0.943188;stroke-linecap:square;stroke-linejoin:miter;stroke-miterlimit:4;stroke-dasharray:none;stroke-opacity:1;paint-order:fill markers stroke" />
      <path class="cls-20" d="m 55.784479,125.95454 v 0 a 0.12722811,0.12722811 0 0 1 -0.08484,-0.12704 v -18.09844 a 0.09542109,0.09542109 0 0 1 0,-0.085 l 7.262608,-7.42166 a 0.13783045,0.13783045 0 0 1 0.137845,0 0.13783045,0.13783045 0 0 1 0.08482,0.12705 v 18.32091 a 0.11662579,0.11662579 0 0 1 0,0.0954 l -7.262604,7.14597 a 0.09542109,0.09542109 0 0 1 -0.137846,0.0424 z m 0.127228,-18.16183 v 17.71651 l 6.997546,-6.89151 v -17.9498 z" id="path17254" style="opacity:0.653;mix-blend-mode:normal;fill:none;stroke:#000000;stroke-width:1;stroke-linecap:square;stroke-linejoin:miter;stroke-miterlimit:4;stroke-dasharray:none;stroke-opacity:1;paint-order:fill markers stroke" />
      <polygon class="cls-18" points="177.61,59.44 177.61,42.85 184.47,35.92 184.47,52.52 " id="polygon17256" transform="matrix(1.0602343,0,0,1.0602343,-92.065165,21.35177)" style="opacity:0.653;mix-blend-mode:normal;fill:none;stroke:#000000;stroke-width:0.943188;stroke-linecap:square;stroke-linejoin:miter;stroke-miterlimit:4;stroke-dasharray:none;stroke-opacity:1;paint-order:fill markers stroke" />
      <path class="cls-20" d="m 96.243021,84.50993 v 0 a 0.13783045,0.13783045 0 0 1 -0.08484,-0.12702 V 66.782986 a 0.12722811,0.12722811 0 0 1 0,-0.09538 l 7.273239,-7.347408 a 0.12722811,0.12722811 0 0 1 0.13785,0 0.12722811,0.12722811 0 0 1 0.085,0.116611 v 17.599916 a 0.12722811,0.12722811 0 0 1 0,0.09538 l -7.262633,7.336794 a 0.10602342,0.10602342 0 0 1 -0.148429,0.02003 z M 96.380833,66.8358 v 17.218234 l 6.997577,-7.071761 V 59.764041 Z" id="path17258" style="opacity:0.653;mix-blend-mode:normal;fill:none;stroke:#000000;stroke-width:1;stroke-linecap:square;stroke-linejoin:miter;stroke-miterlimit:4;stroke-dasharray:none;stroke-opacity:1;paint-order:fill markers stroke" />
      <polygon class="cls-18" points="179.36,81.8 189.29,71.75 197.81,80.34 187.87,90.39 " id="satellite-adcs" transform="matrix(1.0602343,0,0,1.0602343,-92.065165,21.35177)" style="opacity:0.653;mix-blend-mode:normal;fill:none;stroke:#000000;stroke-width:0.943188;stroke-linecap:square;stroke-linejoin:miter;stroke-miterlimit:4;stroke-dasharray:none;stroke-opacity:1;paint-order:fill markers stroke" />
      <path class="cls-20" d="m 107.12106,117.31361 a 0.11662579,0.11662579 0 0 1 -0.0954,0 l -9.022629,-9.0968 a 0.13783045,0.13783045 0 0 1 0,-0.19076 L 108.54183,97.423687 a 0.12722811,0.12722811 0 0 1 0.18032,0 l 9.03324,9.096823 a 0.13783045,0.13783045 0 0 1 0,0.19075 l -10.53879,10.60235 a 0.12722811,0.12722811 0 0 1 -0.0954,0 z m -8.842374,-9.23465 8.842374,8.9166 10.34792,-10.46455 -8.84237,-8.916585 z" id="satellite-adcs-line" style="opacity:0.653;mix-blend-mode:normal;fill:none;stroke:#000000;stroke-width:1;stroke-linecap:square;stroke-linejoin:miter;stroke-miterlimit:4;stroke-dasharray:none;stroke-opacity:1;paint-order:fill markers stroke" />
      <polygon class="cls-18" points="158.64,68.38 172.3,54.58 181.43,63.79 184.91,67.33 186.77,69.18 173.09,83 " id="satellite-power-management" transform="matrix(1.0602343,0,0,1.0602343,-92.065165,21.35177)" style="opacity:0.653;mix-blend-mode:normal;fill:none;stroke:#000000;stroke-width:0.943188;stroke-linecap:square;stroke-linejoin:miter;stroke-miterlimit:4;stroke-dasharray:none;stroke-opacity:1;paint-order:fill markers stroke" />
      <path class="cls-20" d="m 91.45076,109.48908 v 0 a 0.19084217,0.19084217 0 0 1 -0.09541,0 L 76.034967,93.946006 a 0.13783045,0.13783045 0 0 1 0,-0.190738 L 90.517769,79.124033 a 0.13783045,0.13783045 0 0 1 0.190864,0 l 15.331007,15.490014 a 0.11662579,0.11662579 0 0 1 0,0.180329 L 91.546214,109.44685 a 0.13783045,0.13783045 0 0 1 -0.09541,0.0424 z M 76.321217,93.850596 91.45076,109.16042 l 14.31318,-14.461662 -1.87662,-1.876605 -3.68963,-3.742631 -9.542108,-9.679915 z" id="path27640" style="opacity:0.653;mix-blend-mode:normal;fill:none;stroke:#000000;stroke-width:1;stroke-linecap:square;stroke-linejoin:miter;stroke-miterlimit:4;stroke-dasharray:none;stroke-opacity:1;paint-order:fill markers stroke" />
      <polygon class="cls-18" points="173.77,71.52 181.43,63.79 184.91,67.33 177.27,75.05 " id="polygon17268" transform="matrix(1.0602343,0,0,1.0602343,-92.065165,21.35177)" style="opacity:0.653;mix-blend-mode:normal;fill:none;stroke:#000000;stroke-width:0.943188;stroke-linecap:square;stroke-linejoin:miter;stroke-miterlimit:4;stroke-dasharray:none;stroke-opacity:1;paint-order:fill markers stroke" />
      <path class="cls-20" d="m 95.882537,101.06016 a 0.13783045,0.13783045 0 0 1 -0.09541,0 l -3.71082,-3.753214 a 0.12722811,0.12722811 0 0 1 0,-0.180313 l 8.121383,-8.195617 a 0.15903514,0.15903514 0 0 1 0.0954,0 v 0 a 0.19084217,0.19084217 0 0 1 0.0954,0 l 3.68963,3.710807 a 0.12722811,0.12722811 0 0 1 0,0.18033 l -8.100193,8.195617 a 0.19084217,0.19084217 0 0 1 -0.09541,0.0424 z m -3.530578,-3.880426 3.530578,3.551766 7.919993,-7.994171 -3.50943,-3.530578 z" id="satellite-imu" style="opacity:0.653;mix-blend-mode:normal;fill:none;stroke:#000000;stroke-width:1;stroke-linecap:square;stroke-linejoin:miter;stroke-miterlimit:4;stroke-dasharray:none;stroke-opacity:1;paint-order:fill markers stroke" />
      <polygon class="cls-18" points="152.74,67.98 175.44,90.92 181.92,84.38 159.22,61.44 " id="satellite-obc" transform="matrix(1.0602343,0,0,1.0602343,-92.065165,21.35177)" style="opacity:0.653;mix-blend-mode:normal;fill:none;stroke:#000000;stroke-width:0.943188;stroke-linecap:square;stroke-linejoin:miter;stroke-miterlimit:4;stroke-dasharray:none;stroke-opacity:1;paint-order:fill markers stroke" />
      <path class="cls-20" d="m 93.94231,117.88616 a 0.09542109,0.09542109 0 0 1 -0.08483,0 L 69.779571,93.521884 a 0.13783045,0.13783045 0 0 1 0,-0.190738 l 6.870319,-6.933912 a 0.13783045,0.13783045 0 0 1 0.09541,0 v 0 a 0.12722811,0.12722811 0 0 1 0.08484,0 l 24.06733,24.332446 a 0.11662579,0.11662579 0 0 1 0,0.18033 l -6.85973,6.92333 a 0.10602342,0.10602342 0 0 1 -0.09541,0.0529 z M 70.065832,93.447677 93.94231,117.5893 l 6.6795,-6.7537 -23.876501,-24.152213 z" id="satellite-obc-line" style="opacity:0.653;mix-blend-mode:normal;fill:none;stroke:#000000;stroke-width:1;stroke-linecap:square;stroke-linejoin:miter;stroke-miterlimit:4;stroke-dasharray:none;stroke-opacity:1;paint-order:fill markers stroke" />
   </g>
   <g transform="matrix(-0.02183307,0,0,-0.01674711,209.75644,297.07162)" fill="#000000" stroke="none" id="g4187">
      <path d="m 1575,5840 c -77,-13 -116,-26 -195,-66 -123,-63 -174,-129 -220,-287 -26,-88 -31,-118 -27,-174 3,-38 10,-180 16,-318 l 10,-250 45,-155 c 101,-347 130,-424 213,-560 22,-36 65,-112 97,-169 91,-164 244,-347 503,-602 l 229,-224 -131,-463 c -73,-254 -134,-464 -136,-466 -2,-2 -156,-54 -341,-115 l -337,-112 -29,-82 c -16,-45 -42,-119 -58,-164 -25,-70 -32,-82 -49,-78 -11,2 -51,6 -90,10 -38,3 -143,26 -231,51 L 682,1662 341,1524 0,1385 V 693 0 h 2460 2460 v 693 692 l -298,113 c -163,62 -306,112 -317,112 -11,-1 -74,-13 -140,-29 l -120,-28 -75,226 -75,225 -285,58 c -157,31 -295,60 -307,63 -19,4 -32,35 -88,206 -36,111 -64,203 -63,205 2,2 44,-13 93,-33 50,-19 127,-41 172,-48 44,-8 99,-19 121,-25 107,-28 459,-55 737,-55 h 180 l 78,39 c 93,47 189,143 239,239 l 33,62 v 195 195 l -53,155 c -54,159 -68,189 -169,375 -118,216 -193,338 -241,394 -27,31 -71,90 -99,131 -63,93 -190,240 -336,387 l -110,111 50,69 c 73,99 483,703 490,720 5,11 -6,8 -38,-10 -24,-14 -204,-115 -399,-225 -195,-109 -371,-208 -391,-220 l -35,-22 -110,92 c -60,50 -156,122 -214,161 -58,39 -136,94 -175,122 -154,113 -493,293 -681,361 -51,18 -122,47 -159,63 -127,58 -413,94 -560,71 z m 515,-177 c 214,-74 711,-327 877,-447 106,-77 382,-299 383,-308 0,-13 -60,-39 -73,-32 -7,4 -32,24 -57,44 -85,69 -375,267 -497,339 -124,73 -241,130 -371,182 -40,16 -103,44 -140,63 -117,58 -191,71 -412,71 h -195 l -61,-47 c -126,-97 -144,-135 -144,-300 0,-192 29,-305 139,-534 135,-278 480,-742 729,-979 144,-136 145,-135 16,10 -87,98 -284,346 -303,382 -13,25 -63,41 503,-161 147,-53 274,-96 281,-96 17,0 544,138 572,150 11,5 85,104 164,219 79,116 146,211 150,211 13,0 130,-142 185,-224 30,-45 85,-121 124,-171 39,-51 96,-142 130,-210 33,-66 76,-147 95,-180 18,-33 53,-114 76,-180 39,-111 42,-129 47,-249 6,-180 -7,-246 -63,-318 -37,-47 -55,-60 -120,-87 l -76,-32 -167,4 c -125,2 -180,8 -217,21 -121,41 -146,50 -255,91 -205,75 -479,229 -635,355 -22,17 -53,38 -70,46 l -30,14 25,-17 c 13,-10 58,-45 100,-79 166,-135 401,-289 495,-325 27,-11 102,-46 165,-78 120,-61 314,-130 438,-156 44,-9 126,-15 205,-15 139,0 129,-2 277,62 38,17 88,100 106,176 12,50 15,98 11,192 -4,109 -9,138 -40,225 -45,132 -237,504 -298,577 -26,31 -78,103 -115,160 -76,116 -171,233 -288,356 -86,90 -86,87 -36,152 l 19,25 71,-70 c 40,-38 99,-106 133,-150 33,-44 86,-109 117,-145 158,-181 362,-493 475,-726 117,-243 173,-457 163,-633 -5,-75 -9,-94 -30,-122 -14,-19 -35,-55 -46,-81 -13,-30 -34,-56 -59,-72 -21,-14 -48,-33 -59,-41 -56,-41 -241,-53 -399,-26 -231,40 -317,70 -612,216 -355,176 -524,289 -978,656 -173,139 -401,376 -600,621 -222,272 -303,384 -361,500 -24,49 -63,118 -85,155 -79,129 -135,273 -180,462 -27,117 -31,147 -27,230 4,79 10,108 36,163 47,103 135,188 216,209 17,4 121,7 231,5 l 200,-3 z m 187,-292 c 200,-53 588,-235 733,-345 30,-23 69,-50 85,-60 17,-10 42,-30 57,-45 14,-14 41,-37 60,-49 29,-21 29,-20 -7,14 -42,39 -32,38 23,-4 l 33,-24 -21,-15 c -12,-9 -142,-83 -288,-165 l -267,-149 -525,152 c -289,83 -531,157 -537,163 -8,7 -15,53 -19,116 -13,213 47,364 161,408 133,52 324,53 512,3 z m 1736,-253 c -6,-7 -165,-227 -353,-488 -188,-261 -345,-478 -349,-482 -5,-6 -198,-66 -361,-112 l -55,-15 560,554 c 308,305 562,555 564,555 2,0 -1,-6 -6,-12 z M 2652,2769 c 29,-17 122,-66 208,-109 l 155,-78 73,-212 c 40,-117 71,-215 69,-217 -2,-2 -143,25 -313,60 l -309,64 3,244 c 3,232 4,245 24,262 27,22 28,22 90,-14 z m 518,-755 c 338,-64 620,-122 626,-128 15,-14 349,-1005 342,-1012 -10,-9 -1480,-36 -1487,-27 -6,6 -133,1250 -131,1286 0,5 8,6 18,3 9,-2 294,-57 632,-122 z M 2080,1653 c 0,-5 -7,-53 -15,-108 -8,-55 -15,-104 -15,-110 0,-5 -18,19 -41,54 -33,52 -39,69 -34,95 12,60 16,65 48,69 18,2 38,5 45,5 6,1 12,-1 12,-5 z m -221,-55 c -1,-24 -4,-72 -8,-107 l -6,-64 -38,55 c -34,50 -37,59 -31,101 5,36 11,47 28,50 54,11 56,9 55,-35 z m -202,-133 -13,-80 -29,49 c -44,74 -33,151 22,158 35,4 38,-15 20,-127 z" id="path4175" />
      <path d="m 2570,3420 c 0,-5 5,-10 11,-10 5,0 7,5 4,10 -3,6 -8,10 -11,10 -2,0 -4,-4 -4,-10 z" id="path4177" />
      <path d="m 2735,1774 c 7,-52 25,-252 25,-277 0,-20 0,-20 21,-1 12,10 44,45 71,76 l 49,57 -12,76 c -7,41 -16,80 -19,85 -4,6 -37,13 -74,17 l -67,6 z" id="path4179" />
      <path d="m 3044,1778 c 3,-13 12,-81 21,-153 24,-198 18,-191 79,-87 l 53,89 -15,71 -15,70 -46,12 c -25,6 -54,13 -64,16 -14,5 -17,1 -13,-18 z" id="path4181" />
      <path d="m 3354,1733 c 2,-10 12,-76 22,-148 9,-71 20,-134 24,-138 4,-5 30,28 58,72 l 51,80 -23,68 c -24,72 -33,79 -109,82 -22,1 -27,-3 -23,-16 z" id="path4183" />
      <path d="m 3670,1691 c 0,-15 43,-219 54,-256 1,-5 19,22 40,60 37,69 37,71 26,125 -20,94 -16,90 -71,90 -41,0 -49,-3 -49,-19 z" id="path4185" />
   </g>
</svg>
