<?xml version="1.0" encoding="UTF-8"?>
<svg xmlns="http://www.w3.org/2000/svg" viewBox="0 0 296.49 359.96">
    <defs>
        <style>.cls-1{fill:#eceff3;fill-opacity:0;stroke:#000;stroke-miterlimit:4;stroke-width:0.24px;}</style>
    </defs>
    <title>Asset 1</title>
    <g id="Layer_2" data-name="Layer 2">
        <g id="Layer_1-2" data-name="Layer 1">
            <path class="cls-1" d="M208.42,345.93l28.68,2.4,25.11-5.82-24.24-2-.87,7.85"></path>
            <path class="cls-1" d="M252.22,350.14l-6.54,6,22-5.36Z"></path>
            <path class="cls-1" d="M270.78,349.05l22.36-3.7-20.22-.68Z"></path>
            <path class="cls-1" d="M296.45,337.29,275,347H254.84Z"></path>
            <path class="cls-1" d="M237.9,337.79,251.42,340l-9,12.6-23-2.62,16.42,9.86-15.45-15.19-1,5.33,31.93-10"></path>
            <path class="cls-1" d="M171.67,341.08l36.75,4.85,12-1.26-23-4.31,12.14-2.57"></path>
            <path class="cls-1" d="M194,337.79l5.12,18.45,9.35-10.31"></path>
            <path class="cls-1" d="M171.77,346.39l22.18-8.6,3.55,2.57Z"></path>
            <path class="cls-1" d="M175.46,353.41l44-3.41-20.41-3.11Z"></path>
            <path class="cls-1" d="M184.11,348.64,147,358.85l12.44-10.79Z"></path>
            <path class="cls-1" d="M89.47,337.79l46.21,2.1,36.09,6.5-11.49-8.6"></path>
            <path class="cls-1" d="M147.07,344.56l-22.18,9.54-10.83-7.4,11.65-1.64"></path>
            <path class="cls-1" d="M138.66,337.79H89.47l24.36,13.87,11.88-6.6,6.48-.84,7.75,8.09,22.45-.19-30.2-7.9,14.88.34"></path>
            <path class="cls-1" d="M255,215.81l-27.51-2,4.68,25.08"></path>
            <path class="cls-1" d="M217.42,230.69l34.08-4.37L241.32,185.6"></path>
            <path class="cls-1" d="M253.66,178.54l-8.77,55.65-27.47-3.5"></path>
            <path class="cls-1" d="M201.74,204l30.44,34.94L255,215.81l-6.9-17.53,11.2-.3L227.5,213.84Z"></path>
            <path class="cls-1" d="M240.6,210.9l-9.43-12.5L258.37,212l-8.18-38.14-19,24.58,16.88-27.51"></path>
            <path class="cls-1" d="M204.12,212.42l47.38,13.9L240.6,210.9"></path>
            <path class="cls-1" d="M204.12,212.42,201.74,204l-4.46,11.82"></path>
            <path class="cls-1" d="M201.74,204,226,183.2v17"></path>
            <path class="cls-1" d="M217.67,172.07l26.93-8.17-4.37,16.68"></path>
            <path class="cls-1" d="M217.67,172.07,226,183.2l5.3-22.45"></path>
            <path class="cls-1" d="M200.29,185.18l25.67-2,22.15,15.08-.06-27.77-7.82,10.07L226.1,199.7l-8.43-27.63,22.56,8.51L231,160.7l13.56,3.2,3.45,6.61,2.14,3.31"></path>
            <path class="cls-1" d="M218.85,244.61l-1.43-13.92-10-2.63-3.25-15.64Z"></path>
            <path class="cls-1" d="M227.21,244.61l-9.79-13.92L240.6,210.9l-4.46,30.39-10-41.59-8.68,31-13.3-18.27"></path>
            <path class="cls-1" d="M187,202.23l11.1-4.72,28,2.19,5.07-1.3,22.49-19.86"></path>
            <path class="cls-1" d="M187.79,213.39l-.8-11.16L201.74,204l-3.65-6.47.54-12.93,1.66.6"></path>
            <path class="cls-1" d="M160.28,295.73l28-33.57,4.78,3.13"></path>
            <path class="cls-1" d="M151.75,317.74l3.69-32.94-8.78,10.93"></path>
            <path class="cls-1" d="M224.48,295.73l-12.54-9-31.38,1.55-25.12-3.49L193,265.29l-12.47,23"></path>
            <path class="cls-1" d="M141.93,302.48l9.82,15.26-4.68,26.82"></path>
            <path class="cls-1" d="M194,337.79,138.66,320.2l21.62-24.47"></path>
            <path class="cls-1" d="M215.51,329.36,186,314.74l-5.42-26.45"></path>
            <path class="cls-1" d="M211.94,286.74l26,51.05-27.23-42.06"></path>
            <path class="cls-1" d="M193,265.29l18.91,21.45,3.57,42.62"></path>
            <path class="cls-1" d="M210.19,268.15l21,30.88-6.74-3.3"></path>
            <path class="cls-1" d="M160.28,295.73,194,337.79l30.53-42.06,13.42,42.06L231.22,299l-15.71,30.33-7.09,16.57-22.59-31.4-34.08,3.21,28.81-29.45,34.95,41.07L238,340.48l-17.51,4.19-10.82-6.88"></path>
            <path class="cls-1" d="M226.59,337.79,195,295.73l-34.75,42.06"></path>
            <path class="cls-1" d="M147.21,208.19l-.44,11.75,38.3-17,10.62,16.64-36.54,5.95L185.07,203l-14.43.29-25.8,3,38.75-8.92"></path>
            <path class="cls-1" d="M197.09,232.41l10.28-4.35-10.45,18.45"></path>
            <path class="cls-1" d="M202.25,252.39l10.95-11.07,5.65,8.73"></path>
            <path class="cls-1" d="M202.42,252.28l-3.72,2.26-10.45,7.62"></path>
            <path class="cls-1" d="M202.42,262.1l-3.72-7.56-1.78-8"></path>
            <path class="cls-1" d="M207.37,228.06l-31.66-8.4-19.47,15,21.84,15.47,24.34,12"></path>
            <path class="cls-1" d="M218.85,244.61l-11.48-16.55L197.28,215.8"></path>
            <path class="cls-1" d="M156.17,221.62l40.75,24.89-21.21-26.85"></path>
            <path class="cls-1" d="M138.71,217.16l31.93-13.92,17.15,10.15-42.95-7.12"></path>
            <path class="cls-1" d="M215.6,152.47l-6.33.59-21.43,22.77"></path>
            <path class="cls-1" d="M229.62,96.57,250.79,65.1l-13,27.82"></path>
            <path class="cls-1" d="M154,149.81l24.89-21.21L202,112"></path>
            <path class="cls-1" d="M166.75,125.33l25-.83,3.38,14.41"></path>
            <path class="cls-1" d="M136.43,102.27l-23-35.18,27.69,33L118.44,66.83"></path>
            <path class="cls-1" d="M214.63,165.93l8.72-17.35-5.68,23.49-8.95-3.42"></path>
            <path class="cls-1" d="M182.49,183.51l16.14,1.07,10.09-15.93,5.91-2.72L231,160.7l2.65-10.79-10.34-1.33-14.63,20.07"></path>
            <path class="cls-1" d="M149.91,139.48,169.6,146l-.74-15.35"></path>
            <path class="cls-1" d="M150.47,143.05l11.47-7.59,6.92-4.81L154,149.81"></path>
            <path class="cls-1" d="M206.39,32.51l29-12.68L246,55.2,196.56,71.62l16.89,3.77L246,55.2l11.18,10.6"></path>
            <path class="cls-1" d="M226.47,105.47l-13-30.08-3.09-17.78"></path>
            <path class="cls-1" d="M163.51,56.51,193,95.44l-26.48-7.27"></path>
            <path class="cls-1" d="M206.39,32.51,246,55.2,267.78,8.83"></path>
            <path class="cls-1" d="M224.56,93.37l-14.2-35.76-46.85-1.1"></path>
            <path class="cls-1" d="M194.55,147.87l31.92-42.4L195.25,139"></path>
            <path class="cls-1" d="M169.6,146l25,1.87-12.06,35.64"></path>
            <path class="cls-1" d="M226.47,105.47l-9.53,3.58,11.19,3.51"></path>
            <path class="cls-1" d="M235.41,19.83l-8.94,85.64,11.35-12.55"></path>
            <path class="cls-1" d="M259.08,1.35,213.21,17.17l27.13-17"></path>
            <path class="cls-1" d="M116.89,54.33l40.48-18.25,55-26.39-6,22.82,32.71-28L215.72,6.05l33.43,3.32"></path>
            <path class="cls-1" d="M153.31,97.09l6,27.27,7.17-36.19Z"></path>
            <path class="cls-1" d="M161.94,135.46l-27.85-32.11,7-3.26,11,14.45"></path>
            <path class="cls-1" d="M133.84,110.52l25.46,13.84,1.61,6.6"></path>
            <path class="cls-1" d="M148.43,131.34l12.48-.38,8-.31L202,112l-31.4,10-3.87,3.36L160.91,131l-6.72,4.7-5.86-4.17,3.84-17-14.4-10.8Z"></path>
            <path class="cls-1" d="M142,140.37l12.18-4.71,14.67-5,1.76-8.68L193,95.44,250.79,65.1"></path>
            <path class="cls-1" d="M237.82,92.92l-13.26.45L193,95.44,159.3,124.36l-5.11,11.3-3.72,7.39"></path>
            <path class="cls-1" d="M157.32,30.91l6.19,25.6,13-35.52L193,95.44l3.61-23.82,9.83-39.11-49,3.57,2.3,36.9,32.1,51.52L193,95.44,202,112l14.92-3,7.62-15.68,5.06,3.2"></path>
            <path class="cls-1" d="M154,149.81,142,140.37l-16.16,24.39,3.42-32.46"></path>
            <path class="cls-1" d="M142,140.37l-20.19,11.28L154,149.81l-3.48-6.76Z"></path>
            <path class="cls-1" d="M129.27,132.3l-21.78-62,2.33,38.77"></path>
            <path class="cls-1" d="M107.55,200.5l43.28-29.1-24.66,1L88.08,183.33"></path>
            <path class="cls-1" d="M8.11,167.64l37-2.93,41-2.74"></path>
            <path class="cls-1" d="M235.41,19.83,196.56,71.62,159.67,73,88.32,78.21"></path>
            <path class="cls-1" d="M153.31,97.09,132.53,44l33.94,44.21-3-31.66,49.7-39.34,54.45,24.88-57.3,15.56,39.83-45"></path>
            <path class="cls-1" d="M159.67,73l-40.3-15.09,33.94,39.2"></path>
            <path class="cls-1" d="M134,84.87,132.53,44l31,12.55L159.67,73l-6.36,24.11Z"></path>
            <path class="cls-1" d="M132.53,44l-3.31,1.92-12.33,8.45"></path>
            <path class="cls-1" d="M92.23,58.06l22-12.44L114,37"></path>
            <path class="cls-1" d="M109.82,109.06l19.45,23.24,19.16-1"></path>
            <path class="cls-1" d="M53.22,107.8l43-8.54,41.14,24.63"></path>
            <path class="cls-1" d="M148.43,131.34l-11.08-7.45-27.53-14.83"></path>
            <path class="cls-1" d="M133.84,110.52l-18.33,17.9,13.76,3.88Z"></path>
            <path class="cls-1" d="M86.56,119.75l9.57-51.27.08,30.78"></path>
            <path class="cls-1" d="M169.6,146l-9.31,22.93-21.23-1.77L120,186"></path>
            <path class="cls-1" d="M209.27,153.06l-14.72-5.19-25.77,12.19L185,135l10.24,4,2-12.94L218,132.67,195.25,139l8,16.48"></path>
            <path class="cls-1" d="M160.29,168.93l-12.88,23.41,3.42-20.94L154,149.81l14.83,10.25,34.43-4.63"></path>
            <path class="cls-1" d="M182.49,183.51l-22.2-14.58,24.78,34,1.92-.72-3.4-4.88-5-9.18"></path>
            <path class="cls-1" d="M160.33,191l8.45-30.93,10.31,12.85"></path>
            <path class="cls-1" d="M182.49,183.51l-3.4-10.6-.48,15.26"></path>
            <path class="cls-1" d="M123,166.43l3.21,6,21.24,20-8.35-25.18,8.53-7,3.24,11.27,9.5,19.59,18.76-18.08,8.75,2.92"></path>
            <path class="cls-1" d="M99.74,192.55l51.09-21.15-60,17.9"></path>
            <path class="cls-1" d="M73.92,184.22l47.42-22.64L88.08,183.33Z"></path>
            <path class="cls-1" d="M43.82,192.73,9.16,200.32l40.15,3.56"></path>
            <path class="cls-1" d="M55,174.45l33.05,8.88,2.74,6"></path>
            <path class="cls-1" d="M55,174.45,20.59,156.24l23.23,44.11"></path>
            <path class="cls-1" d="M53.22,107.8,38.27,148.27l-8.08-22.91"></path>
            <path class="cls-1" d="M45.07,164.71,67.41,90.66l35.81,5.09-16.66,24"></path>
            <path class="cls-1" d="M55,174.45l10.41-41.89-32.18-8.27,11.81,40.42"></path>
            <path class="cls-1" d="M93.29,141.35,55,174.45l31.53-54.7-41.49,45"></path>
            <path class="cls-1" d="M123,166.43l-36.4-46.68,32.07,33.12"></path>
            <path class="cls-1" d="M65.44,132.56l27.85,8.79-1.65,42.22"></path>
            <path class="cls-1" d="M106.39,30.25l.32-2.42-13.06.53"></path>
            <path class="cls-1" d="M89.93,32.61l16.46-2.36L93.65,28.36"></path>
            <path class="cls-1" d="M4.51,171.3l4.08,20.54,35.23,8.51"></path>
            <path class="cls-1" d="M65.44,132.56,38.27,148.27l5.55,44.46"></path>
            <path class="cls-1" d="M65.44,132.56l30.77-33.3,16.15,30.13"></path>
            <path class="cls-1" d="M33.26,124.29,86.05,162l.51-42.22,25.8,9.64"></path>
            <path class="cls-1" d="M88.32,78.21,53.22,107.8l-20,16.49L20.72,146.57"></path>
            <path class="cls-1" d="M83.94,45.94,33.26,124.29,67.41,90.66,96.13,68.48"></path>
            <path class="cls-1" d="M107.55,200.5l-7.81-7.95-8.92-3.25"></path>
            <path class="cls-1" d="M95.05,197.62,120,186l27.38,6.31"></path>
            <path class="cls-1" d="M212.41,144.8l-9.2,10.63-15.37,20.4-5.35,7.68-3.88,4.66L160.33,191l-12.92,1.35"></path>
            <path class="cls-1" d="M49.31,203.88l45.74-6.26,52.36-5.28"></path>
            <path class="cls-1" d="M147.53,201.58l36.06-4.23,32-44.88"></path>
            <path class="cls-1" d="M43.82,200.35l44.26-17L123,166.43"></path>
            <path class="cls-1" d="M238.81,79.43,224.56,93.37,202,112l-21.28,18.12L154,149.81l-13.28,7.95-14.82,7"></path>
            <path class="cls-1" d="M43.82,200.35l47-11,35.35-16.91,21.42-12.26,22-14.13L185,135,197.26,126l19.68-17,12.68-12.48,9.19-17.14,12-14.33,5.27,2.23"></path>
            <path class="cls-1" d="M159.3,124.36,170.62,122l10.12,8.17,11-5.64-25.3-36.33"></path>
            <path class="cls-1" d="M159.3,124.36l-7.13-9.82L134,84.87,118.34,62.64"></path>
            <path class="cls-1" d="M107.49,70.29l26.35,40.23,14.59,20.82-6.42,9"></path>
            <path class="cls-1" d="M125.85,164.76l-4-13.11-6.31-23.23-5.69-19.36L98.3,67.86,100,65.59"></path>
            <path class="cls-1" d="M96.13,68.48l7.09,27.27,6.2,24,2.94,9.66,6.27,23.48,2.71,8.71,1.62,4.85"></path>
            <path class="cls-1" d="M98.3,67.86l-1-9.8L100,65.59"></path>
            <path class="cls-1" d="M269.63,7.21l-1.85,1.62-18.63.54"></path>
            <path class="cls-1" d="M132.53,44l24.79-13L176.53,21l33.83,36.62,2.85-40.44,22.2,2.66,14.78-7.18,21.58,10.27"></path>
            <path class="cls-1" d="M105.06,60.37l5.32,1L113.12,57l3.77-2.63"></path>
            <path class="cls-1" d="M100,65.59l5.11-5.22L111.42,53"></path>
            <path class="cls-1" d="M100.47,60.47,100,65.59l3.46,4.91,4.08-.21,5.94-3.2,4.91-4.45,1.29-2.84-.26-1.91-2.63-3.77L111.42,53Z"></path>
            <path class="cls-1" d="M114,37,108.3,45.3,96.18,52.13l-3.12-6.44"></path>
            <path class="cls-1" d="M89,60.61l3.19-2.55h5.1l-1.15-5.93,9.89.32,2.23-7.15,5.93.32,2.17-4.46,1.78.32"></path>
            <path class="cls-1" d="M121.81,24.49l15,.7,8.8-1.15,9.5-3.94"></path>
            <path class="cls-1" d="M93.65,28.36l-3.72,4.25,1.73,1.66-2.17,4.34"></path>
            <path class="cls-1" d="M129.22,45.88l-11-4.4L132.53,44"></path>
            <path class="cls-1" d="M89.49,38.61l16.9-8.36L114,37l4.14,4.53-4,4.14-8.16,6.83-8.74,5.61L89,60.61l-4.21-4.53,4.78-5.23-5.67-4.91.89-4.46,4.66-2.87-3.71-5.29"></path>
            <path class="cls-1" d="M43.82,200.35v-7.62L55,174.45"></path>
            <path class="cls-1" d="M49.31,203.88l-5.49-3.53-24.59,4.86"></path>
            <path class="cls-1" d="M93.65,28.36l-7.87,5L48.3,92.67,30.19,125.36,3.82,166.55l-3.7,9.78.74,15.4,8.3,8.59,10.07,4.89,30.08-1.33,58.24-3.38,39.86-8.16.12,9.24-3.12-.12.43,4.81-6.13,10.89,8.8,6.27,8.66-1.81.07,13-.36,19.2,12.72,1.08v7.32L138.66,295.6v42.19H237.9l-1.17-42.06L207.87,262.1h-5.45v-9.82l16.43-2.23v-5.44h8.36l8.93-3.32,8.75-7.1,6.61-7.87L258.37,212l4.44-18.24-9.15-15.18-3.47-4.72,3.69-8.42-9.28-1.5-6.21-22.33-15,7-3.54-1-4.21,4.92-3.19-7.67L218,132.67l10.13-20.11,9.69-19.64,18.24-25.59,14.57-20.9,4.8-14.57.73-14.55-5.07-7.72-1.46-2.38L259.08,1.35,240.34.12,215.72,6.05,191.05,16l-36,4.11-33.28,4.39Z"></path>
            <path class="cls-1" d="M238.39,141.57l-4.7,8.34-16,22.16-19.58,25.44-10.3,15.88,16.33-1-6.84,3.38"></path>
            <path class="cls-1" d="M271.09,9.59l.68,13.33,4.39-5.61"></path>
            <path class="cls-1" d="M191.05,16l22.16,1.18,37-4.52-1-3.28,9.93-8"></path>
            <path class="cls-1" d="M188.25,262.16,195,295.73,194,337.79"></path>
            <path class="cls-1" d="M202.42,262.1l8.25,33.63-1,42.06"></path>
            <path class="cls-1" d="M202.42,262.1l22.06,33.63,2.11,42.06"></path>
            <path class="cls-1" d="M160.28,337.79V295.73l16.59-33.52"></path>
            <path class="cls-1" d="M196.92,246.51l-18.84,3.6-22.2,3.73"></path>
            <path class="cls-1" d="M156.17,221.62l19.54-2,21.57-3.86-.36,30.71,5.5,5.77"></path>
            <path class="cls-1" d="M251.42,340l33.15-2.23H237.9l.07,2.69"></path>
            <path class="cls-1" d="M237.9,337.79l-17.44,6.88,6.13-6.88"></path>
            <path class="cls-1" d="M138.66,337.79l-3,2.1"></path>
            <path class="cls-1" d="M125.71,345.06l-36.24-7.27"></path>
            <path class="cls-1" d="M259.31,198,255,215.81"></path>
            <path class="cls-1" d="M231.17,198.4l-4,46.21.29-30.77"></path>
            <path class="cls-1" d="M231.17,198.4l31.64-4.68"></path>
            <path class="cls-1" d="M259.31,198l-5.65-19.44"></path>
            <path class="cls-1" d="M241.32,185.6l21.49,8.12"></path>
            <path class="cls-1" d="M240.23,180.58l10-6.76"></path>
            <path class="cls-1" d="M201.74,204l-55,16"></path>
            <path class="cls-1" d="M231.17,198.4l-27,14"></path>
            <path class="cls-1" d="M187.79,213.39,226.1,199.7"></path>
            <path class="cls-1" d="M204.12,212.42l13.55-40.35"></path>
            <path class="cls-1" d="M231,160.7,201.74,204"></path>
            <path class="cls-1" d="M215.6,152.47l7.75-3.89"></path>
            <path class="cls-1" d="M217.67,172.07l-8.4-19-10.64,31.52"></path>
            <path class="cls-1" d="M215.6,152.47l-27.76,23.36"></path>
            <path class="cls-1" d="M226.1,199.7l12.29-58.13"></path>
            <path class="cls-1" d="M233.69,149.91l6.54,30.67"></path>
            <path class="cls-1" d="M231.83,146.39,231,160.7"></path>
            <path class="cls-1" d="M231.83,146.39l-10.62,12.89"></path>
            <path class="cls-1" d="M208.72,168.65l25-18.74"></path>
            <path class="cls-1" d="M198.09,197.51l11.59-24.93"></path>
            <path class="cls-1" d="M214.63,165.93l-14.34,19.25"></path>
            <path class="cls-1" d="M227.21,244.61l-18.49-76"></path>
            <path class="cls-1" d="M182.49,183.51,201.74,204"></path>
            <path class="cls-1" d="M187.79,213.39l10.84-28.81"></path>
            <path class="cls-1" d="M171.67,341.08l-19.92-23.34"></path>
            <path class="cls-1" d="M176.87,262.21l-38.21,33.52"></path>
            <path class="cls-1" d="M171.67,341.08l14.16-26.55L194,337.79"></path>
            <path class="cls-1" d="M236.73,295.73l-10.14,42.06"></path>
            <path class="cls-1" d="M210.19,268.15l.48,27.58"></path>
            <path class="cls-1" d="M160.28,295.73l47.59-33.63,2.8,33.63"></path>
            <path class="cls-1" d="M195,295.73l7.39-33.63"></path>
            <path class="cls-1" d="M209.64,337.79,195,295.73"></path>
            <path class="cls-1" d="M178.91,254.9l23.34-2.51"></path>
            <path class="cls-1" d="M159.15,225.54l39.55,29"></path>
            <path class="cls-1" d="M155.88,253.84l19.83-34.18"></path>
            <path class="cls-1" d="M187.79,213.39l9.13,33.12"></path>
            <path class="cls-1" d="M178.91,254.9l16.78-35.31"></path>
            <path class="cls-1" d="M159.15,225.54l19.76,29.36"></path>
            <path class="cls-1" d="M197.28,215.8l-41.4,38"></path>
            <path class="cls-1" d="M197.09,232.41l21.76,17.64"></path>
            <path class="cls-1" d="M213.2,241.32l-16-21.08"></path>
            <path class="cls-1" d="M178.08,250.11l24.17,2.28"></path>
            <path class="cls-1" d="M146.77,219.94l12.38,5.6"></path>
            <path class="cls-1" d="M185.07,203l-46.36,14.21"></path>
            <path class="cls-1" d="M209.27,153.06l3.14-8.26"></path>
            <path class="cls-1" d="M183.59,197.35l19.62-41.92"></path>
            <path class="cls-1" d="M182.49,183.51l26.23-14.86"></path>
            <path class="cls-1" d="M187,202.23l11.64-17.65"></path>
            <path class="cls-1" d="M147.53,201.58l-2.69,4.69"></path>
            <path class="cls-1" d="M147.41,192.34l36.18,5"></path>
            <path class="cls-1" d="M147.21,208.19l31.5-23.41"></path>
            <path class="cls-1" d="M149.64,194.2,185.07,203"></path>
            <path class="cls-1" d="M149.91,139.48l-1.48-8.14"></path>
            <path class="cls-1" d="M149.91,139.48l2.26-24.94"></path>
            <path class="cls-1" d="M141.12,100.09l-3.77,23.8"></path>
            <path class="cls-1" d="M270.63,46.43l1.14-23.51"></path>
            <path class="cls-1" d="M224.56,93.37l31.5-26"></path>
            <path class="cls-1" d="M237.82,92.92l29.84-50.87"></path>
            <path class="cls-1" d="M238.81,79.43l17.25-12.1"></path>
            <path class="cls-1" d="M224.56,93.37,220,122.87"></path>
            <path class="cls-1" d="M202,112l27.6-15.45"></path>
            <path class="cls-1" d="M267.66,42.05,257.13,65.8"></path>
            <path class="cls-1" d="M229.62,96.57,246,55.2"></path>
            <path class="cls-1" d="M194.55,147.87l-2.78-23.37"></path>
            <path class="cls-1" d="M168.86,130.65l11.88-.51"></path>
            <path class="cls-1" d="M161.94,135.46l-20.82-35.37"></path>
            <path class="cls-1" d="M154.19,135.66l-16.42-31.92"></path>
            <path class="cls-1" d="M122.63,87l11.21,23.51"></path>
            <path class="cls-1" d="M137.77,103.74l-10.5-20.15"></path>
            <path class="cls-1" d="M112.14,69.82l24.29,32.45"></path>
            <path class="cls-1" d="M137.77,103.74,107.49,70.29"></path>
            <path class="cls-1" d="M182.49,183.51l1.1,13.84"></path>
            <path class="cls-1" d="M160.33,191l23.26,6.36"></path>
            <path class="cls-1" d="M194.55,147.87l-34.26,21.06"></path>
            <path class="cls-1" d="M179.09,172.91l33.32-28.11"></path>
            <path class="cls-1" d="M154,149.81,185,135"></path>
            <path class="cls-1" d="M159.67,73l-7.5,41.56"></path>
            <path class="cls-1" d="M166.75,125.33,159.67,73"></path>
            <path class="cls-1" d="M180.74,130.14,193,95.44"></path>
            <path class="cls-1" d="M210.36,57.61,202,112"></path>
            <path class="cls-1" d="M193,95.44l20.5-20"></path>
            <path class="cls-1" d="M238.81,79.43,210.36,57.61"></path>
            <path class="cls-1" d="M170.62,122l68.19-42.54"></path>
            <path class="cls-1" d="M213.45,75.39,191.77,124.5"></path>
            <path class="cls-1" d="M193,95.44l17.41-37.83"></path>
            <path class="cls-1" d="M206.39,32.51l4,25.1"></path>
            <path class="cls-1" d="M159.67,73l46.72-40.47"></path>
            <path class="cls-1" d="M213.21,17.17,157.32,30.91"></path>
            <path class="cls-1" d="M249.15,9.37l20.48-2.16"></path>
            <path class="cls-1" d="M191.05,16l58.1-6.62"></path>
            <path class="cls-1" d="M212.38,9.69,239.1,4.46"></path>
            <path class="cls-1" d="M240.34.12l29.29,7.09"></path>
            <path class="cls-1" d="M276.16,17.31l-8.5,24.74,7.77-10.19"></path>
            <path class="cls-1" d="M235.41,19.83l31.9,11.61L257.13,65.8"></path>
            <path class="cls-1" d="M267.31,31.44,246,55.2"></path>
            <path class="cls-1" d="M235.41,19.83l36.36,3.09L210.36,57.61"></path>
            <path class="cls-1" d="M166.47,88.17l43.89-30.56"></path>
            <path class="cls-1" d="M220,122.87l8.1-10.31"></path>
            <path class="cls-1" d="M191.77,124.5l25.17-15.45"></path>
            <path class="cls-1" d="M179.09,172.91,169.6,146"></path>
            <path class="cls-1" d="M203.21,155.43l-24.12,17.48"></path>
            <path class="cls-1" d="M195.15,138.91l-16.06,34"></path>
            <path class="cls-1" d="M218,132.67l-49.22,27.39"></path>
            <path class="cls-1" d="M195.25,139l21.69-29.9"></path>
            <path class="cls-1" d="M168.78,160.06l26.37-21.15"></path>
            <path class="cls-1" d="M220,122.87,185,135"></path>
            <path class="cls-1" d="M220,122.87l-3.09-13.82"></path>
            <path class="cls-1" d="M267.31,31.44l.47-22.61"></path>
            <path class="cls-1" d="M250.79,65.1l-.6-52.45"></path>
            <path class="cls-1" d="M212.38,9.69l23,10.14"></path>
            <path class="cls-1" d="M166.75,125.33,119.37,57.89"></path>
            <path class="cls-1" d="M152.17,114.54l2,21.12"></path>
            <path class="cls-1" d="M137.35,123.89l-39-56"></path>
            <path class="cls-1" d="M91.64,183.57,120,186,43.82,200.35"></path>
            <path class="cls-1" d="M147.59,160.13l-21.74,4.63"></path>
            <path class="cls-1" d="M147.41,192.34l-23.62-27.53"></path>
            <path class="cls-1" d="M90.82,189.3,123,166.43"></path>
            <path class="cls-1" d="M4.51,171.3l25.68-45.94"></path>
            <path class="cls-1" d="M43.82,192.73l1.25-28"></path>
            <path class="cls-1" d="M55,174.45l-11.21,25.9-39.31-29"></path>
            <path class="cls-1" d="M55,174.45l67.93-8"></path>
            <path class="cls-1" d="M108.3,45.3l8.1-4.14"></path>
            <path class="cls-1" d="M89.49,38.61l-5.55,7.33L48.3,92.67"></path>
            <path class="cls-1" d="M93.29,141.35l2.92-42.09"></path>
            <path class="cls-1" d="M86.56,119.75l9.65-20.49"></path>
            <path class="cls-1" d="M67.41,90.66,123,166.43"></path>
            <path class="cls-1" d="M96.21,99.26l22.42,53.61"></path>
            <path class="cls-1" d="M140.67,157.76l-3.32-33.87-11.5,40.87"></path>
            <path class="cls-1" d="M109.82,109.06l24,1.46"></path>
            <path class="cls-1" d="M96.21,99.26,88.32,78.21"></path>
            <path class="cls-1" d="M168.78,160.06,150.83,171.4"></path>
            <path class="cls-1" d="M147.41,192.34l21.37-32.28"></path>
            <path class="cls-1" d="M182.49,183.51,160.33,191"></path>
            <path class="cls-1" d="M123,166.43,120,186"></path>
            <path class="cls-1" d="M99.74,192.55l47.67-.21"></path>
            <path class="cls-1" d="M99.74,192.55,49.31,203.88"></path>
            <path class="cls-1" d="M90.82,189.3,49.31,203.88l38.77-20.55"></path>
            <path class="cls-1" d="M90.82,189.3l-16.9-5.08"></path>
            <path class="cls-1" d="M86.05,162,123,166.43"></path>
            <path class="cls-1" d="M43.82,192.73,86.05,162,73.92,184.22"></path>
            <path class="cls-1" d="M8.11,167.64l-4.29-1.09"></path>
            <path class="cls-1" d="M8.11,167.64l12.61-21.07"></path>
            <path class="cls-1" d="M8.11,167.64.86,191.73"></path>
            <path class="cls-1" d="M19.23,205.21,8.11,167.64"></path>
            <path class="cls-1" d="M4.51,171.3,55,174.45"></path>
            <path class="cls-1" d="M.86,191.73l44.21-27"></path>
            <path class="cls-1" d="M73.92,184.22l-30.1,8.51-23.1-46.16"></path>
            <path class="cls-1" d="M55,174.45,38.27,148.27"></path>
            <path class="cls-1" d="M20.72,146.57l24.35,18.14"></path>
            <path class="cls-1" d="M93.29,141.35,53.22,107.8"></path>
            <path class="cls-1" d="M33.26,124.29l53.3-4.54"></path>
            <path class="cls-1" d="M118.63,152.87,86.05,162"></path>
            <path class="cls-1" d="M93.29,141.35l25.11,19.23"></path>
            <path class="cls-1" d="M86.56,119.75,67.41,90.66"></path>
            <path class="cls-1" d="M210.36,57.61,191.05,16"></path>
            <path class="cls-1" d="M176.53,21l36.68-3.82"></path>
            <path class="cls-1" d="M176.53,21,145.59,24"></path>
            <path class="cls-1" d="M136.79,25.19l-30.4,5.06"></path>
            <path class="cls-1" d="M112.23,39.59,91.66,34.27"></path>
            <path class="cls-1" d="M84.9,41.92l26.27-.79"></path>
            <path class="cls-1" d="M55,174.45,8.59,191.84"></path>
            <path class="cls-1" d="M73.92,184.22,45.07,164.71"></path>
            <path class="cls-1" d="M4.51,171.3l3.6-3.66,35.71,25.09"></path>
            <path class="cls-1" d="M20.59,156.24,8.11,167.64"></path>
            <path class="cls-1" d="M20.59,156.24l.13-9.67"></path>
            <path class="cls-1" d="M20.59,156.24l17.68-8"></path>
            <path class="cls-1" d="M65.44,132.56,53.22,107.8"></path>
            <path class="cls-1" d="M86.05,162l26.31-32.58"></path>
            <path class="cls-1" d="M45.07,164.71,96.13,68.48l-7.81,9.73"></path>
            <path class="cls-1" d="M91.64,183.57l3.41,14.05"></path>
            <path class="cls-1" d="M233.69,149.91l10.91,14"></path>
            <path class="cls-1" d="M250.79,65.1l16.87-23"></path>
            <path class="cls-1" d="M250.79,65.1l19.84-18.67"></path>
            <path class="cls-1" d="M229.62,96.57l8.2-3.65,1-13.49"></path>
            <path class="cls-1" d="M96.13,68.48,93.06,45.69"></path>
            <path class="cls-1" d="M239.1,4.46l28.68,4.37"></path>
            <path class="cls-1" d="M250.19,12.65l20.9-3.06"></path>
            <path class="cls-1" d="M119.37,57.89l-9,3.51"></path>
            <path class="cls-1" d="M113.43,67.09,100,65.59"></path>
            <path class="cls-1" d="M110.38,61.4l3.05,5.69"></path>
            <path class="cls-1" d="M111.42,53l-1,8.36"></path>
            <path class="cls-1" d="M89.61,50.85,89,60.61"></path>
            <path class="cls-1" d="M92.23,58.06l-2.62-7.21L108.3,45.3"></path>
            <path class="cls-1" d="M96.18,52.13l10.21-21.88,1.91,15"></path>
            <path class="cls-1" d="M93.06,45.69l13.33-15.44"></path>
            <path class="cls-1" d="M89.49,38.61l3.57,7.08"></path>
            <path class="cls-1" d="M239.1,4.46l-3.69,15.37"></path>
            <path class="cls-1" d="M249.15,9.37,240.34.12"></path>
            <path class="cls-1" d="M215.72,6.05l-2.51,11.12"></path>
            <path class="cls-1" d="M121.81,24.49l-15.1,5.61"></path>
            <path class="cls-1" d="M132.53,44,114,37"></path>
            <path class="cls-1" d="M83.94,45.94,89,60.61"></path>
            <path class="cls-1" d="M271.77,22.92l-4.11,19.13"></path>
            <path class="cls-1" d="M271.77,22.92l3.66,8.94"></path>
            <path class="cls-1" d="M187.79,213.39l-49.08,3.77"></path>
            <path class="cls-1" d="M198.7,254.54l-30.1,7.7"></path>
            <path class="cls-1" d="M168.6,254.92l10.31,0"></path>
            <path class="cls-1" d="M168.6,262.24l9.48-12.13"></path>
            <path class="cls-1" d="M188.25,262.16l-9.34-7.26"></path>
            <path class="cls-1" d="M236.73,295.73H138.66"></path>
            <path class="cls-1" d="M168.6,262.24l33.82-.14"></path>
            <path class="cls-1" d="M178.08,250.11l-2.37-30.45"></path>
            <path class="cls-1" d="M218.85,250.05l-21.93-3.54"></path>
            <path class="cls-1" d="M147.07,344.56l24.6-3.48"></path>
        </g>
    </g>
</svg> 