<?xml version="1.0" standalone="no"?>
<!DOCTYPE svg PUBLIC "-//W3C//DTD SVG 20010904//EN"
 "http://www.w3.org/TR/2001/REC-SVG-20010904/DTD/svg10.dtd">
<svg version="1.0"
    xmlns="http://www.w3.org/2000/svg" width="492.000000pt" height="594.000000pt" viewBox="0 0 492.000000 594.000000" preserveAspectRatio="xMidYMid meet">

    <g transform="translate(0.000000,594.000000) scale(0.100000,-0.100000)" fill="#000000" stroke="none">
        <path d="M1575 5840 c-77 -13 -116 -26 -195 -66 -123 -63 -174 -129 -220 -287
-26 -88 -31 -118 -27 -174 3 -38 10 -180 16 -318 l10 -250 45 -155 c101 -347
130 -424 213 -560 22 -36 65 -112 97 -169 91 -164 244 -347 503 -602 l229
-224 -131 -463 c-73 -254 -134 -464 -136 -466 -2 -2 -156 -54 -341 -115 l-337
-112 -29 -82 c-16 -45 -42 -119 -58 -164 -25 -70 -32 -82 -49 -78 -11 2 -51 6
-90 10 -38 3 -143 26 -231 51 l-162 46 -341 -138 -341 -139 0 -692 0 -693
2460 0 2460 0 0 693 0 692 -298 113 c-163 62 -306 112 -317 112 -11 -1 -74
-13 -140 -29 l-120 -28 -75 226 -75 225 -285 58 c-157 31 -295 60 -307 63 -19
4 -32 35 -88 206 -36 111 -64 203 -63 205 2 2 44 -13 93 -33 50 -19 127 -41
172 -48 44 -8 99 -19 121 -25 107 -28 459 -55 737 -55 l180 0 78 39 c93 47
189 143 239 239 l33 62 0 195 0 195 -53 155 c-54 159 -68 189 -169 375 -118
216 -193 338 -241 394 -27 31 -71 90 -99 131 -63 93 -190 240 -336 387 l-110
111 50 69 c73 99 483 703 490 720 5 11 -6 8 -38 -10 -24 -14 -204 -115 -399
-225 -195 -109 -371 -208 -391 -220 l-35 -22 -110 92 c-60 50 -156 122 -214
161 -58 39 -136 94 -175 122 -154 113 -493 293 -681 361 -51 18 -122 47 -159
63 -127 58 -413 94 -560 71z m515 -177 c214 -74 711 -327 877 -447 106 -77
382 -299 383 -308 0 -13 -60 -39 -73 -32 -7 4 -32 24 -57 44 -85 69 -375 267
-497 339 -124 73 -241 130 -371 182 -40 16 -103 44 -140 63 -117 58 -191 71
-412 71 l-195 0 -61 -47 c-126 -97 -144 -135 -144 -300 0 -192 29 -305 139
-534 135 -278 480 -742 729 -979 144 -136 145 -135 16 10 -87 98 -284 346
-303 382 -13 25 -63 41 503 -161 147 -53 274 -96 281 -96 17 0 544 138 572
150 11 5 85 104 164 219 79 116 146 211 150 211 13 0 130 -142 185 -224 30
-45 85 -121 124 -171 39 -51 96 -142 130 -210 33 -66 76 -147 95 -180 18 -33
53 -114 76 -180 39 -111 42 -129 47 -249 6 -180 -7 -246 -63 -318 -37 -47 -55
-60 -120 -87 l-76 -32 -167 4 c-125 2 -180 8 -217 21 -121 41 -146 50 -255 91
-205 75 -479 229 -635 355 -22 17 -53 38 -70 46 l-30 14 25 -17 c13 -10 58
-45 100 -79 166 -135 401 -289 495 -325 27 -11 102 -46 165 -78 120 -61 314
-130 438 -156 44 -9 126 -15 205 -15 139 0 129 -2 277 62 38 17 88 100 106
176 12 50 15 98 11 192 -4 109 -9 138 -40 225 -45 132 -237 504 -298 577 -26
31 -78 103 -115 160 -76 116 -171 233 -288 356 -86 90 -86 87 -36 152 l19 25
71 -70 c40 -38 99 -106 133 -150 33 -44 86 -109 117 -145 158 -181 362 -493
475 -726 117 -243 173 -457 163 -633 -5 -75 -9 -94 -30 -122 -14 -19 -35 -55
-46 -81 -13 -30 -34 -56 -59 -72 -21 -14 -48 -33 -59 -41 -56 -41 -241 -53
-399 -26 -231 40 -317 70 -612 216 -355 176 -524 289 -978 656 -173 139 -401
376 -600 621 -222 272 -303 384 -361 500 -24 49 -63 118 -85 155 -79 129 -135
273 -180 462 -27 117 -31 147 -27 230 4 79 10 108 36 163 47 103 135 188 216
209 17 4 121 7 231 5 l200 -3 145 -50z m187 -292 c200 -53 588 -235 733 -345
30 -23 69 -50 85 -60 17 -10 42 -30 57 -45 14 -14 41 -37 60 -49 29 -21 29
-20 -7 14 -42 39 -32 38 23 -4 l33 -24 -21 -15 c-12 -9 -142 -83 -288 -165
l-267 -149 -525 152 c-289 83 -531 157 -537 163 -8 7 -15 53 -19 116 -13 213
47 364 161 408 133 52 324 53 512 3z m1736 -253 c-6 -7 -165 -227 -353 -488
-188 -261 -345 -478 -349 -482 -5 -6 -198 -66 -361 -112 l-55 -15 560 554
c308 305 562 555 564 555 2 0 -1 -6 -6 -12z m-1361 -2349 c29 -17 122 -66 208
-109 l155 -78 73 -212 c40 -117 71 -215 69 -217 -2 -2 -143 25 -313 60 l-309
64 3 244 c3 232 4 245 24 262 27 22 28 22 90 -14z m518 -755 c338 -64 620
-122 626 -128 15 -14 349 -1005 342 -1012 -10 -9 -1480 -36 -1487 -27 -6 6
-133 1250 -131 1286 0 5 8 6 18 3 9 -2 294 -57 632 -122z m-1090 -361 c0 -5
-7 -53 -15 -108 -8 -55 -15 -104 -15 -110 0 -5 -18 19 -41 54 -33 52 -39 69
-34 95 12 60 16 65 48 69 18 2 38 5 45 5 6 1 12 -1 12 -5z m-221 -55 c-1 -24
-4 -72 -8 -107 l-6 -64 -38 55 c-34 50 -37 59 -31 101 5 36 11 47 28 50 54 11
56 9 55 -35z m-202 -133 l-13 -80 -29 49 c-44 74 -33 151 22 158 35 4 38 -15
20 -127z"/>
        <path d="M2570 3420 c0 -5 5 -10 11 -10 5 0 7 5 4 10 -3 6 -8 10 -11 10 -2 0
-4 -4 -4 -10z"/>
        <path d="M2735 1774 c7 -52 25 -252 25 -277 0 -20 0 -20 21 -1 12 10 44 45 71
76 l49 57 -12 76 c-7 41 -16 80 -19 85 -4 6 -37 13 -74 17 l-67 6 6 -39z"/>
        <path d="M3044 1778 c3 -13 12 -81 21 -153 24 -198 18 -191 79 -87 l53 89 -15
71 -15 70 -46 12 c-25 6 -54 13 -64 16 -14 5 -17 1 -13 -18z"/>
        <path d="M3354 1733 c2 -10 12 -76 22 -148 9 -71 20 -134 24 -138 4 -5 30 28
58 72 l51 80 -23 68 c-24 72 -33 79 -109 82 -22 1 -27 -3 -23 -16z"/>
        <path d="M3670 1691 c0 -15 43 -219 54 -256 1 -5 19 22 40 60 37 69 37 71 26
125 -20 94 -16 90 -71 90 -41 0 -49 -3 -49 -19z"/>
    </g>
</svg>
